<svg width="390" height="178" viewBox="0 0 390 178" fill="none" xmlns="http://www.w3.org/2000/svg">
<path d="M391 2V1H390H340C322.842 1 309.395 15.0193 306.174 31.6374C294.981 89.3883 251.681 134 195.5 134C139.309 134 95.277 89.376 83.8791 31.627C80.602 15.0233 67.1586 1 50 1H0H-1V2V176V177H0H206.5H390H391V176V2Z" fill="#9C27B0"/>
<path d="M391 2V1H390H340C322.842 1 309.395 15.0193 306.174 31.6374C294.981 89.3883 251.681 134 195.5 134C139.309 134 95.277 89.376 83.8791 31.627C80.602 15.0233 67.1586 1 50 1H0H-1V2V176V177H0H206.5H390H391V176V2Z" stroke="#9C27B0" stroke-width="2" style="mix-blend-mode:overlay"/>
</svg>
